<?xml version="1.0" encoding="UTF-8"?>
<svg width="554px" height="177px" viewBox="0 0 554 177" version="1.1" xmlns="http://www.w3.org/2000/svg" xmlns:xlink="http://www.w3.org/1999/xlink">
    <!-- Generator: Sketch 41.2 (35397) - http://www.bohemiancoding.com/sketch -->
    <title>roundee_logo_color</title>
    <desc>Created with Sketch.</desc>
    <defs>
        <linearGradient x1="50%" y1="37.6088055%" x2="50%" y2="119.205187%" id="linearGradient-1">
            <stop stop-color="#01BCB6" offset="0%"></stop>
            <stop stop-color="#2F7EE2" offset="100%"></stop>
        </linearGradient>
    </defs>
    <g id="logo" stroke="none" stroke-width="1" fill="none" fill-rule="evenodd">
        <g id="roundee_logo_color">
            <g id="logo" transform="translate(163.427195, 64.799988)" fill="#405262">
                <path d="M288.26873,45.7533537 C290.319074,45.7533537 291.981206,44.1404022 291.981206,42.1507257 C291.981206,40.1610491 290.319074,38.5480976 288.26873,38.5480976 C286.218385,38.5480976 284.556253,40.1610491 284.556253,42.1507257 C284.556253,44.1404022 286.218385,45.7533537 288.26873,45.7533537 Z" id="Oval"></path>
                <path d="M302.190517,7.40526833 C304.240861,7.40526833 305.902994,5.7923168 305.902994,3.80264027 C305.902994,1.81296373 304.240861,0.200012207 302.190517,0.200012207 C300.140173,0.200012207 298.47804,1.81296373 298.47804,3.80264027 C298.47804,5.7923168 300.140173,7.40526833 302.190517,7.40526833 Z" id="Oval"></path>
                <path d="M20.1182276,10.3796007 C24.0804718,10.3796007 26.7531454,13.3043135 26.7182989,17.8543724 C26.6859843,22.0738265 23.7897128,25.0449717 20.240064,25.3216939 L5.34433989,25.3194642 L6.08831335,26.0704533 L6.08831335,9.62861174 L5.34433989,10.3796007 L20.1182276,10.3796007 Z M16.356655,30.426654 L15.7818205,30.1524128 L27.9024431,45.0436703 C28.4435536,45.835689 29.2870633,46.2449645 30.2087951,46.2449645 C31.7477042,46.2449645 32.9828236,45.0463911 32.9828236,43.5239878 C32.9828236,42.9029518 32.7844913,42.2827906 32.3830619,41.8153288 L21.45483,29.1817218 L21.0922744,30.3996114 C27.788993,28.5347677 32.3260411,23.481701 32.3260411,17.8601779 C32.3260411,10.5222377 27.2491736,5.28529227 20.1779351,5.28529227 L3.31079425,5.28529227 C2.12923777,5.28529227 1.38957219,5.48445894 0.944983139,5.99561527 C0.559578357,6.43872581 0.514886136,6.79558374 0.549212416,7.66493718 C0.556046993,7.84107479 0.558098489,7.91256087 0.558098489,8.00626895 L0.55092742,43.6129345 C0.550927405,45.1354905 1.78604679,46.3340639 3.32495588,46.3340639 C4.86386497,46.3340639 6.09898436,45.1354905 6.09898436,43.6130872 L6.08831313,29.6750846 L5.34433989,30.426654 L16.356655,30.426654 Z" id="R"></path>
                <path d="M330.386728,4.98962823 C319.012628,4.98962823 311.870751,11.4923719 311.870751,25.5246082 C311.870751,39.5568445 319.012628,46.1451505 330.386728,46.1451505 C341.849,46.1451505 348.902705,39.5568445 348.902705,25.5246082 C348.902705,11.4923719 341.849,4.98962823 330.386728,4.98962823 Z M330.386728,41.1825304 C322.274967,41.1825304 317.601887,36.4765975 317.601887,25.5246082 C317.601887,14.7437437 322.274967,9.95224839 330.386728,9.95224839 C338.49849,9.95224839 343.17157,14.7437437 343.17157,25.5246082 C343.17157,36.4765975 338.49849,41.1825304 330.386728,41.1825304 Z" id="Combined-Shape"></path>
                <path d="M304.837977,13.6024126 C304.837977,12.1385555 303.603578,11 302.016495,11 C300.429411,11 299.195012,12.1385555 299.195012,13.6024126 L299.195012,43.1149259 C299.195012,44.578783 300.429411,45.7173384 302.016495,45.7173384 C303.603578,45.7173384 304.837977,44.578783 304.837977,43.1149259 L304.837977,13.6024126 Z" id="Path"></path>
                <path d="M243.370917,25.5246082 C243.370917,39.8990941 250.689137,46.1451505 262.415922,46.1451505 C270.26317,46.1451505 274.848078,42.6370915 276.170648,41.3536552 C276.699676,40.8402807 277.140533,40.3269062 277.140533,39.3857196 C277.140533,38.016721 275.994305,36.9044096 274.583564,36.9044096 C273.878194,36.9044096 273.525508,37.0755344 272.996481,37.4177841 C270.527684,39.2145948 267.529859,41.096968 262.415922,41.096968 C254.127818,41.096968 249.102053,35.6209733 249.102053,27.1502941 L274.848078,27.1502941 C278.374931,27.1502941 278.374931,24.1556095 278.374931,21.6742994 C278.374931,15.8560551 275.64162,4.98962823 261.534209,4.98962823 C250.071938,4.98962823 243.370917,12.347996 243.370917,25.5246082 Z M272.820138,22.3587988 L249.102053,22.3587988 C249.631081,14.7437437 253.863304,9.95224839 261.534209,9.95224839 C270.615855,9.95224839 272.820138,16.1983048 272.820138,22.3587988 Z" id="Combined-Shape"></path>
                <path d="M203.211202,25.5246082 C203.211202,39.8990941 210.529421,46.1451505 222.256207,46.1451505 C230.103454,46.1451505 234.688363,42.6370915 236.010932,41.3536552 C236.53996,40.8402807 236.980817,40.3269062 236.980817,39.3857196 C236.980817,38.016721 235.83459,36.9044096 234.423849,36.9044096 C233.718478,36.9044096 233.365793,37.0755344 232.836765,37.4177841 C230.367968,39.2145948 227.370143,41.096968 222.256207,41.096968 C213.968102,41.096968 208.942337,35.6209733 208.942337,27.1502941 L234.688363,27.1502941 C238.215215,27.1502941 238.215215,24.1556095 238.215215,21.6742994 C238.215215,15.8560551 235.481904,4.98962823 221.374493,4.98962823 C209.912222,4.98962823 203.211202,12.347996 203.211202,25.5246082 Z M232.660422,22.3587988 L208.942337,22.3587988 C209.471365,14.7437437 213.703589,9.95224839 221.374493,9.95224839 C230.456139,9.95224839 232.660422,16.1983048 232.660422,22.3587988 Z" id="Combined-Shape"></path>
                <path d="M160.953937,25.5246082 C160.953937,39.5568445 167.654957,46.1451505 179.029057,46.1451505 C189.080587,46.1451505 196.310636,40.5835935 196.310636,29.2893545 L196.310636,3.06223385 C196.310636,1.52211036 195.076237,0.324236525 193.489153,0.324236525 C191.90207,0.324236525 190.667671,1.52211036 190.667671,3.06223385 L190.667671,10.5511853 C188.639731,7.81318798 184.319336,4.98962823 178.676372,4.98962823 C167.302272,4.98962823 160.953937,11.4923719 160.953937,25.5246082 Z M190.607343,29.2893545 C190.607343,37.4177841 185.757921,41.1825304 178.968729,41.1825304 C170.856968,41.1825304 166.536573,36.2199102 166.536573,25.5246082 C166.536573,15.000431 170.945139,9.95224839 178.968729,9.95224839 C187.256833,9.95224839 190.607343,17.481741 190.607343,17.481741 L190.607343,29.2893545 Z" id="Combined-Shape"></path>
                <path d="M138.590906,4.98962823 C132.85977,4.98962823 128.539375,7.72762556 126.86412,10.9789974 L126.86412,8.24100006 C126.86412,6.70087656 125.629722,5.50300273 124.042638,5.50300273 C122.455554,5.50300273 121.221156,6.70087656 121.221156,8.24100006 L121.221156,42.9793411 C121.221156,44.5194646 122.455554,45.7173384 124.042638,45.7173384 C125.629722,45.7173384 126.86412,44.5194646 126.86412,42.9793411 L126.86412,21.8454243 C126.86412,15.000431 129.861945,9.86668597 138.590906,9.86668597 C147.143524,9.86668597 149.171464,14.4870565 149.171464,21.2464874 L149.171464,42.9793411 C149.171464,44.5194646 150.405862,45.7173384 151.992946,45.7173384 C153.58003,45.7173384 154.814428,44.5194646 154.814428,42.9793411 L154.814428,20.1341759 C154.814428,12.8613705 152.169289,4.98962823 138.590906,4.98962823 L138.590906,4.98962823 Z" id="Path"></path>
                <path d="M83.4467061,5.50300273 C81.8596223,5.50300273 80.6252239,6.70087656 80.6252239,8.24100006 L80.6252239,30.5727907 C80.6252239,38.7012203 83.4467061,46.1451505 97.0250893,46.1451505 C110.691644,46.1451505 113.424955,38.7012203 113.424955,30.5727907 L113.424955,8.24100006 C113.424955,6.70087656 112.190556,5.50300273 110.691644,5.50300273 C109.10456,5.50300273 107.78199,6.70087656 107.78199,8.24100006 L107.78199,30.5727907 C107.78199,36.1343478 105.930393,40.9258431 97.0250893,40.9258431 C88.119786,40.9258431 86.2681883,36.1343478 86.2681883,30.5727907 L86.2681883,8.24100006 C86.2681883,6.70087656 84.9456185,5.50300273 83.4467061,5.50300273 L83.4467061,5.50300273 Z" id="Path"></path>
                <path d="M56.0300663,4.98962823 C44.6559661,4.98962823 37.5140893,11.4923719 37.5140893,25.5246082 C37.5140893,39.5568445 44.6559661,46.1451505 56.0300663,46.1451505 C67.4923379,46.1451505 74.5460434,39.5568445 74.5460434,25.5246082 C74.5460434,11.4923719 67.4923379,4.98962823 56.0300663,4.98962823 Z M56.0300663,41.1825304 C47.9183049,41.1825304 43.245225,36.4765975 43.245225,25.5246082 C43.245225,14.7437437 47.9183049,9.95224839 56.0300663,9.95224839 C64.1418277,9.95224839 68.8149077,14.7437437 68.8149077,25.5246082 C68.8149077,36.4765975 64.1418277,41.1825304 56.0300663,41.1825304 Z" id="Combined-Shape"></path>
            </g>
            <g id="symbol" transform="translate(41.000000, 41.000000)">
                <path d="M79.9848068,47.5569269 C79.9848068,28.4281015 63.8311271,12.9211245 43.9045532,12.9211245 C23.9779793,12.9211245 7.82429954,28.4281015 7.82429954,47.5569269 C7.82429954,66.6857524 23.9779793,82.1927294 43.9045532,82.1927294 C63.8311271,82.1927294 79.9848068,66.6857524 79.9848068,47.5569269 L79.9848068,47.5569269 L79.9848068,47.5569269 Z M2.71558418,47.5569269 C2.71558418,25.7195915 21.1565137,8.01693348 43.9045532,8.01693348 C66.6525926,8.01693348 85.0935222,25.7195915 85.0935222,47.5569269 C85.0935222,69.3942623 66.6525926,87.0969204 43.9045532,87.0969204 C21.1565137,87.0969204 2.71558418,69.3942623 2.71558418,47.5569269 L2.71558418,47.5569269 L2.71558418,47.5569269 Z" id="Oval" fill="#9FA2A7"></path>
                <polygon id="Line" fill="#9FA2A7" points="41.1853694 83.107396 39.860804 85.2088627 44.0637373 87.8579936 45.3883028 85.7565269 79.0203688 32.3981471 80.3449343 30.2966805 76.1420009 27.6475496 74.8174355 29.7490162"></polygon>
                <polygon id="Line-Copy-3" fill="#9FA2A7" points="79.8958552 31.6400004 82.0819992 30.46042 79.7228385 26.0881319 77.5366944 27.2677123 9.85755428 63.7854273 7.67141022 64.9650076 10.030571 69.3372958 12.216715 68.1577154"></polygon>
                <polygon id="Line-Copy-2" fill="#9FA2A7" points="11.888693 27.6740238 9.72669486 26.4507496 7.28014658 30.774746 9.44214475 31.9980201 74.8088844 68.9829923 76.9708826 70.2062664 79.4174309 65.8822701 77.2554327 64.6589959"></polygon>
                <path d="M55.0939674,10.7242101 C55.0939674,10.5402479 55.089253,10.3573867 55.0799384,10.1757409 L57.9598374,11.7837044 L57.5357857,10.2612543 C57.5357857,10.2612543 55.4740475,9.50794034 54.6780576,7.78324037 C53.405143,3.39515298 49.355788,0.18748467 44.557242,0.18748467 C40.2512623,0.18748467 36.5485602,2.77042326 34.9139888,6.4714473 C33.5100342,8.94376763 31.533433,9.87730976 31.533433,9.87730976 L31.0062446,11.4270669 L34.0679774,9.71757827 C34.0365762,10.0488925 34.0205165,10.3846758 34.0205165,10.7242101 C34.0205165,11.3431618 34.0738848,11.9496486 34.1762709,12.53932 L30.844386,13.3202888 C30.844386,13.3202888 31.0645533,15.1868225 31.0062446,15.1891611 C33.4459766,14.223634 34.9070983,15.458741 35.6089223,16.2901993 C35.7615323,16.5350283 35.9239106,16.7731388 36.0955119,17.0039855 C38.0304268,19.5952107 41.099309,21.2609356 44.557242,21.2609356 C47.8583083,21.2609356 50.8048211,19.7429116 52.736785,17.3668592 C52.7539639,17.3817844 52.7725659,17.3426181 52.8106312,17.2749986 C52.9996037,17.0372289 53.1785181,16.7911065 53.3467311,16.5372749 C54.0826268,15.7221619 55.390751,14.6177261 57.7247252,15.5413994 C57.6664165,15.5390608 58.0156233,13.6769263 58.0156233,13.6769263 L54.8611119,12.9375325 C55.0136726,12.2238648 55.0939674,11.4834144 55.0939674,10.7242101 Z" id="Combined-Shape" fill="#9FA2A7"></path>
                <path d="M17.7724335,21.7990761 C17.2306595,21.3101208 16.629558,20.8703583 15.9720678,20.4907562 C15.8127519,20.398775 15.6520323,20.3114273 15.4900651,20.228671 L18.3225518,18.5385871 L16.6271527,18.1491753 C16.6271527,18.1491753 15.3702074,19.1182335 13.2171585,19.3804597 C8.78050596,18.2887925 3.97790624,20.1918026 1.57863322,24.3474654 C-0.57435664,28.0765532 -0.188817248,32.5746565 2.19907793,35.8407488 C3.63819281,38.2927694 3.35195827,40.4292116 3.35195827,40.4292116 L4.53689831,41.7027644 L4.58730411,38.1964817 C4.85853003,38.3893331 5.14129709,38.5711328 5.4353424,38.7409 C5.97137026,39.0503758 6.52328741,39.3074009 7.08515083,39.5135677 L6.09554727,42.789549 C6.09554727,42.789549 7.91432471,43.6017736 7.88719563,43.6534397 C8.27089065,41.0578063 9.97885735,40.3403631 11.0498333,40.1482948 C11.3381664,40.1385452 11.6255653,40.1169767 11.9112851,40.083789 C11.9267744,40.084596 11.9348782,40.0852473 11.9348782,40.0852473 L11.9340764,40.0811166 C15.1228094,39.7037161 18.0998105,37.8788486 19.828777,34.8841908 C21.4793102,32.0253835 21.6379193,28.7146166 20.5461795,25.8534605 L20.5676945,25.8460458 C20.5676945,25.8460458 20.5430766,25.8103529 20.503549,25.7435776 C20.3921206,25.4610378 20.2684296,25.1830321 20.1327115,24.9104396 C19.7947508,23.8655787 19.6670869,22.115998 21.6339985,20.5565537 C21.6028189,20.6058812 19.9900231,19.436886 19.9900231,19.436886 L17.7724335,21.7990761 L17.7724335,21.7990761 Z" id="Combined-Shape-Copy" fill="#9FA2A7" transform="translate(10.899609, 30.901308) rotate(-0.500000) translate(-10.899609, -30.901308) "></path>
                <path d="M7.68139316,56.222719 C6.99108597,56.4595149 6.31504122,56.772049 5.66427615,57.1630681 C5.50658972,57.2578157 5.35227523,57.3560372 5.20137176,57.4575759 L5.09640788,54.1608582 L3.93387487,55.4548971 C3.93387487,55.4548971 4.172053,57.024055 3.35758243,59.0342838 C0.251856918,62.3854167 -0.412079481,67.5084627 2.05935443,71.6216194 C4.27709794,75.3125644 8.39814098,77.1560879 12.4124042,76.6510206 C15.2546865,76.5811056 16.9844917,77.8672197 16.9844917,77.8672197 L18.6728364,77.4482784 L15.6306096,75.7043129 C15.9307742,75.5605896 16.226868,75.4014142 16.5179057,75.2265411 C17.0484508,74.9077575 17.5408248,74.5496481 17.9935391,74.1581829 L20.3790076,76.611937 C20.3790076,76.611937 21.971156,75.4149726 22.0031918,75.4637485 C19.9190188,73.8697732 20.1195674,72.0281285 20.4708002,70.9983153 C20.6020596,70.7414067 20.7225292,70.4795854 20.8320223,70.2135995 C20.8402375,70.2004436 20.8447359,70.1936716 20.8447359,70.1936716 L20.8407344,70.1923702 C22.0565809,67.2204741 21.9037946,63.7320169 20.1228274,60.7679898 C18.4226526,57.9384238 15.6038859,56.1946094 12.5721764,55.7623506 L12.576122,55.7399384 C12.576122,55.7399384 12.5329693,55.7441655 12.4554029,55.7463638 C12.1542665,55.7068432 11.8511507,55.680246 11.5469384,55.6667923 C10.4692359,55.4558207 8.87712545,54.7192645 8.46678241,52.2429313 C8.49480906,52.294116 6.6904839,53.1379589 6.6904839,53.1379589 L7.68139316,56.222719 L7.68139316,56.222719 Z" id="Combined-Shape-Copy-2" fill="#9FA2A7" transform="translate(11.277986, 65.055075) rotate(-1.300000) translate(-11.277986, -65.055075) "></path>
                <path d="M72.3694362,57.3542273 C71.6791291,57.5910233 71.0030843,57.9035574 70.3523192,58.2945765 C70.1946328,58.389324 70.0403183,58.4875455 69.8894148,58.5890842 L69.784451,55.2923665 L68.6219179,56.5864054 C68.6219179,56.5864054 68.8600961,58.1555633 68.0456255,60.1657921 C64.9399,63.516925 64.2759636,68.639971 66.7473975,72.7531277 C68.965141,76.4440728 73.0861841,78.2875962 77.1004473,77.782529 C79.9427296,77.7126139 81.6725347,78.998728 81.6725347,78.998728 L83.3608795,78.5797867 L80.3186527,76.8358212 C80.6188173,76.6920979 80.9149111,76.5329226 81.2059488,76.3580495 C81.7364939,76.0392658 82.2288679,75.6811564 82.6815822,75.2896912 L85.0670507,77.7434453 C85.0670507,77.7434453 86.6591991,76.546481 86.6912349,76.5952568 C84.6070618,75.0012816 84.8076105,73.1596369 85.1588433,72.1298236 C85.2901027,71.8729151 85.4105723,71.6110938 85.5200653,71.3451078 C85.5282805,71.3319519 85.5327789,71.3251799 85.5327789,71.3251799 L85.5287775,71.3238786 C86.7446239,68.3519824 86.5918377,64.8635253 84.8108705,61.8994982 C83.1106957,59.0699321 80.291929,57.3261178 77.2602195,56.8938589 L77.2641651,56.8714467 C77.2641651,56.8714467 77.2210123,56.8756738 77.143446,56.8778721 C76.8423096,56.8383515 76.5391938,56.8117543 76.2349815,56.7983006 C75.157279,56.5873291 73.5651685,55.8507728 73.1548255,53.3744396 C73.1828521,53.4256244 71.378527,54.2694673 71.378527,54.2694673 L72.3694362,57.3542273 L72.3694362,57.3542273 Z" id="Combined-Shape-Copy-4" fill="#9FA2A7" transform="translate(75.966029, 66.186584) scale(-1, 1) rotate(-3.700000) translate(-75.966029, -66.186584) "></path>
                <path d="M32.6914027,82.0530154 C32.52641,82.7639119 32.4332048,83.5028482 32.4199549,84.2619368 C32.4167443,84.445871 32.4182666,84.6287866 32.4244096,84.8105673 L29.5730121,83.1525875 L30.0543707,84.8242076 C30.0543707,84.8242076 31.5113072,85.453748 32.7844743,87.2097172 C33.9806124,91.6193517 37.9733691,94.8972025 42.7711843,94.9809487 C47.0765082,95.0560984 50.8237248,92.5381742 52.522639,88.8662411 C53.9695278,86.4187997 55.9768714,85.6333783 55.9768714,85.6333783 L56.5162755,83.9795758 L53.4251743,85.6353695 C53.462353,85.3046537 53.4842705,84.9692018 53.4901962,84.6297192 C53.5009984,84.0108618 53.4582228,83.403536 53.3661435,82.8121675 L56.7111507,82.089467 C56.7111507,82.089467 56.5397775,80.1049542 56.5981182,80.1036336 C54.1419071,81.0264344 52.6863784,79.8804364 51.9991722,79.0368563 C51.8508583,78.7894012 51.6926604,78.548493 51.525114,78.3146866 C51.5183105,78.3007481 51.5149513,78.2933446 51.5149513,78.2933446 L51.5117273,78.2960485 C49.6357169,75.6900872 46.5963731,73.9710566 43.1389667,73.9107074 C39.8384032,73.8530958 36.865846,75.3194648 34.8927084,77.6614379 L34.8757927,77.6462152 C34.8757927,77.6462152 34.85651,77.6850508 34.8172703,77.7519957 C34.624177,77.9864312 34.4409944,78.2293936 34.268377,78.4802509 C33.5183677,79.2823965 32.0500426,80.2422675 29.7325442,79.2780014 C29.7908032,79.2813572 29.5502759,81.2586804 29.5502759,81.2586804 L32.6914027,82.0530154 L32.6914027,82.0530154 Z" id="Combined-Shape-Copy-2" fill="#9FA2A7" transform="translate(43.130713, 84.445828) rotate(-0.500000) translate(-43.130713, -84.445828) "></path>
                <path d="M78.8339077,41.301655 C84.9709236,41.301655 89.9459579,36.3266207 89.9459579,30.1896049 C89.9459579,24.0525891 84.9709236,19.0775548 78.8339077,19.0775548 C72.6968919,19.0775548 67.7218576,24.0525891 67.7218576,30.1896049 C67.7218576,36.3266207 72.6968919,41.301655 78.8339077,41.301655 Z" id="Oval-3-Copy-13" fill="url(#linearGradient-1)"></path>
            </g>
        </g>
    </g>
</svg>